<svg className="Icon_awesome-behance" viewBox="0 5.302 38.283 24">
    <path id="Icon_awesome-behance" d="M 15.41954326629639 16.05537033081055 C 17.53308296203613 15.04512405395508 18.63637924194336 13.5164623260498 18.63637924194336 11.13706588745117 C 18.63637924194336 6.444736480712891 15.14039707183838 5.301562786102295 11.10606002807617 5.301562786102295 L 0 5.301562786102295 L 0 28.85625648498535 L 11.41843700408936 28.85625648498535 C 15.69868850708008 28.85625648498535 19.7197322845459 26.80253219604492 19.7197322845459 22.01715469360352 C 19.7197322845459 19.05952453613281 18.31735229492188 16.87287139892578 15.41954135894775 16.05537033081055 Z M 5.177510261535645 9.322608947753906 L 10.03599548339844 9.322608947753906 C 11.90362167358398 9.322608947753906 13.58514881134033 9.847671508789062 13.58514881134033 12.01438426971436 C 13.58514881134033 14.01493835449219 12.27581691741943 14.81914806365967 10.42813014984131 14.81914806365967 L 5.177510261535645 14.81914806365967 L 5.177510261535645 9.32260799407959 Z M 10.71392440795898 24.85514831542969 L 5.177510261535645 24.85514831542969 L 5.177510261535645 18.3683032989502 L 10.82026481628418 18.3683032989502 C 13.0999641418457 18.3683032989502 14.54222393035889 19.3187313079834 14.54222393035889 21.73135948181152 C 14.54222393035889 24.11075592041016 12.8208179473877 24.85514831542969 10.71392345428467 24.85514831542969 Z M 34.54110336303711 8.857363700866699 L 24.99029350280762 8.857363700866699 L 24.99029350280762 6.537785053253174 L 34.54110336303711 6.537785053253174 L 34.54110336303711 8.857364654541016 Z M 38.28300476074219 20.57489395141602 C 38.28300476074219 15.53030872344971 35.3320198059082 11.32316303253174 29.98170471191406 11.32316303253174 C 24.78425598144531 11.32316303253174 21.25504112243652 15.23122215270996 21.25504112243652 20.34891700744629 C 21.25504112243652 25.65935516357422 24.59815788269043 29.30156326293945 29.98170471191406 29.30156326293945 C 34.05592346191406 29.30156326293945 36.69452285766602 27.4671688079834 37.9639778137207 23.56575584411621 L 33.8299446105957 23.56575584411621 C 33.38463973999023 25.02130889892578 31.55024337768555 25.79228401184082 30.12792587280273 25.79228401184082 C 27.38298034667969 25.79228401184082 25.94072151184082 24.18386650085449 25.94072151184082 21.45221328735352 L 38.24312591552734 21.45221328735352 C 38.26306533813477 21.17306709289551 38.28300476074219 20.87398147583008 38.28300476074219 20.57489395141602 Z M 25.94736862182617 18.50123023986816 C 26.10023498535156 16.26140594482422 27.58901977539062 14.85902690887451 29.83548736572266 14.85902690887451 C 32.18829727172852 14.85902690887451 33.37134552001953 16.24146842956543 33.57073593139648 18.50123023986816 L 25.94736862182617 18.50123023986816 Z">
    </path>
</svg>