<svg className="Icon_awesome-instagram" viewBox="-0.005 2.238 24.005 24">
    <path id="Icon_awesome-instagram" d="M 12.00007820129395 8.084399223327637 C 8.594076156616211 8.084399223327637 5.84678316116333 10.83169364929199 5.84678316116333 14.23769569396973 C 5.84678316116333 17.64370155334473 8.594076156616211 20.39099502563477 12.00007820129395 20.39099502563477 C 15.40607929229736 20.39099502563477 18.15337181091309 17.64369964599609 18.15337181091309 14.23769569396973 C 18.15337181091309 10.83169555664062 15.40607929229736 8.084399223327637 12.00007820129395 8.084399223327637 Z M 12.00007820129395 18.2381420135498 C 9.799030303955078 18.2381420135498 7.9996337890625 16.44409942626953 7.9996337890625 14.23769474029541 C 7.9996337890625 12.03129196166992 9.793675422668457 10.23724842071533 12.00007915496826 10.23724842071533 C 14.20648193359375 10.23724842071533 16.00052452087402 12.03129196166992 16.00052452087402 14.23769474029541 C 16.00052452087402 16.44409942626953 14.20112800598145 18.2381420135498 12.00007915496826 18.2381420135498 Z M 19.84030723571777 7.83269739151001 C 19.84030723571777 8.630643844604492 19.19766616821289 9.26793098449707 18.40507507324219 9.26793098449707 C 17.60712623596191 9.26793098449707 16.96984100341797 8.625288963317871 16.96984100341797 7.83269739151001 C 16.96984100341797 7.040105819702148 17.61248397827148 6.397463321685791 18.40507507324219 6.397463321685791 C 19.19766616821289 6.397463321685791 19.84030723571777 7.040105819702148 19.84030723571777 7.83269739151001 Z M 23.91572570800781 9.289353370666504 C 23.82468605041504 7.366782188415527 23.38554573059082 5.66378116607666 21.97709083557129 4.260679244995117 C 20.57398796081543 2.857577323913574 18.8709888458252 2.41843843460083 16.94841957092285 2.322042226791382 C 14.96694087982178 2.209579944610596 9.027859687805176 2.209579944610596 7.046380996704102 2.322042226791382 C 5.129166603088379 2.413083076477051 3.42616605758667 2.852221965789795 2.017709732055664 4.255323886871338 C 0.6092534065246582 5.658425331115723 0.1754699349403381 7.36142635345459 0.07907377183437347 9.283997535705566 C -0.03338853642344475 11.26547718048096 -0.03338853642344475 17.20455932617188 0.07907377183437347 19.18603897094727 C 0.1701146811246872 21.10861206054688 0.6092532277107239 22.81161117553711 2.017709732055664 24.21471405029297 C 3.42616605758667 25.6178150177002 5.1238112449646 26.05695533752441 7.046380996704102 26.15334892272949 C 9.027859687805176 26.26581192016602 14.96694087982178 26.26581192016602 16.94841957092285 26.15334892272949 C 18.87099075317383 26.06230926513672 20.57398986816406 25.6231689453125 21.97709083557129 24.21471214294434 C 23.38019371032715 22.81160926818848 23.81933212280273 21.10860824584961 23.91572761535645 19.18603897094727 C 24.02819061279297 17.20455741882324 24.02819061279297 11.27083110809326 23.91572761535645 9.289351463317871 Z M 21.35587120056152 21.31211471557617 C 20.93815422058105 22.36176300048828 20.12949562072754 23.17041969299316 19.07449340820312 23.5934944152832 C 17.49466514587402 24.22006988525391 13.74592113494873 24.07547569274902 12.00007820129395 24.07547569274902 C 10.25423431396484 24.07547569274902 6.500135898590088 24.21471405029297 4.925662994384766 23.5934944152832 C 3.876015186309814 23.1757755279541 3.067357778549194 22.36711692810059 2.644285202026367 21.31211471557617 C 2.017709493637085 19.73228454589844 2.162303924560547 15.98354053497314 2.162303924560547 14.23769569396973 C 2.162303924560547 12.49185371398926 2.023064851760864 8.737751960754395 2.644285202026367 7.163279056549072 C 3.062002182006836 6.113630294799805 3.870660066604614 5.304972648620605 4.925662994384766 4.881899833679199 C 6.505490779876709 4.255324363708496 10.25423431396484 4.399918556213379 12.00007820129395 4.399918556213379 C 13.74592113494873 4.399918556213379 17.50001907348633 4.260679244995117 19.07449340820312 4.881899833679199 C 20.1241397857666 5.299617290496826 20.93279838562012 6.108274936676025 21.35587120056152 7.163279056549072 C 21.98244667053223 8.743107795715332 21.83785247802734 12.49185371398926 21.83785247802734 14.23769569396973 C 21.83785247802734 15.98354053497314 21.98244667053223 19.73764228820801 21.35587120056152 21.31211471557617 Z">
    </path>
</svg>