<svg xmlns="http://www.w3.org/2000/svg" width="48.001" height="48" viewBox="0 0 48.001 48">
  <path id="user" d="M2014-1163a23.85,23.85,0,0,1-9.342-1.886,23.913,23.913,0,0,1-7.628-5.143,23.929,23.929,0,0,1-5.143-7.629A23.835,23.835,0,0,1,1990-1187a23.834,23.834,0,0,1,1.886-9.341,23.918,23.918,0,0,1,5.143-7.628,23.9,23.9,0,0,1,7.628-5.143A23.862,23.862,0,0,1,2014-1211a23.862,23.862,0,0,1,9.342,1.886,23.923,23.923,0,0,1,7.628,5.143,23.923,23.923,0,0,1,5.143,7.628A23.837,23.837,0,0,1,2038-1187a23.832,23.832,0,0,1-1.966,9.526,23.915,23.915,0,0,1-5.347,7.722c.075-.085.122-.141.138-.161-.054-.062-6.1-6.693-8.64-8.036-1.035-.547-3.634-.861-7.132-.861a39.539,39.539,0,0,0-9.24.861c-2.661.888-8.4,7.74-8.638,8.031a31.89,31.89,0,0,0,8.638,5.461,20.467,20.467,0,0,0,7.36,1.2,36.845,36.845,0,0,0,9.013-1.2l.151-.04.015,0,.067-.018A23.918,23.918,0,0,1,2014-1163Zm0-40.076a10.049,10.049,0,0,0-10.039,10.038A10.05,10.05,0,0,0,2014-1183a10.05,10.05,0,0,0,10.039-10.039A10.049,10.049,0,0,0,2014-1203.077Zm8.439,38.552h0a23.861,23.861,0,0,0,8.25-5.226,18.432,18.432,0,0,1-2.68,2.433,16.818,16.818,0,0,1-5.568,2.8Z" transform="translate(-1990 1211)" fill="#ffb210"/>
</svg>
