<svg xmlns="http://www.w3.org/2000/svg" xmlns:xlink="http://www.w3.org/1999/xlink" width="80" height="38" viewBox="0 0 80 38">
  <defs>
    <linearGradient id="linear-gradient" y1="0.5" x2="1" y2="0.5" gradientUnits="objectBoundingBox">
      <stop offset="0" stop-color="#c5283d"/>
      <stop offset="1" stop-color="#ffb210"/>
    </linearGradient>
  </defs>
  <path id="Unione_1" data-name="Unione 1" d="M53.788,36.507A19.006,19.006,0,0,1,42.264,19,19,19,0,0,1,53.788,1.493,18.768,18.768,0,0,1,74.474,5.565a19.073,19.073,0,0,1,0,26.87,18.788,18.788,0,0,1-20.686,4.072ZM48.6,19A12.529,12.529,0,1,0,61.132,6.384,12.587,12.587,0,0,0,48.6,19ZM30.793,38V33.75A31.764,31.764,0,0,0,6.641,7.194v5.171A29.179,29.179,0,0,0,0,11.041V0H8.924c.183.035.366.071.548.109a34.692,34.692,0,0,1,6.574,2.055,34.964,34.964,0,0,1,5.948,3.251,35.334,35.334,0,0,1,5.183,4.307,35.5,35.5,0,0,1,3.615,4.268V0h6.641V38ZM0,38V15.245a27.286,27.286,0,0,1,6.641,1.96V38Z" fill="url(#linear-gradient)"/>
</svg>
