<svg className="Icon_awesome-linkedin" viewBox="0 2.25 24 24">
    <path id="Icon_awesome-linkedin" d="M 22.28570365905762 2.249999761581421 L 1.708927869796753 2.249999761581421 C 0.766071081161499 2.249999761581421 0 3.026785850524902 0 3.980357646942139 L 0 24.51964378356934 C 0 25.47321510314941 0.766071081161499 26.25 1.708927869796753 26.25 L 22.28570365905762 26.25 C 23.22855949401855 26.25 23.9999885559082 25.47321510314941 23.9999885559082 24.51964378356934 L 23.9999885559082 3.980357646942139 C 23.9999885559082 3.026785850524902 23.22855949401855 2.249999761581421 22.28570365905762 2.249999761581421 Z M 7.253568172454834 22.8214282989502 L 3.696426868438721 22.8214282989502 L 3.696426868438721 11.36785793304443 L 7.258925437927246 11.36785793304443 L 7.258925437927246 22.8214282989502 Z M 5.474997520446777 9.803571701049805 C 4.333926677703857 9.803571701049805 3.412498474121094 8.876786231994629 3.412498474121094 7.741071701049805 C 3.412498474121094 6.60535717010498 4.333926677703857 5.678571701049805 5.474997520446777 5.678571701049805 C 6.610711097717285 5.678571701049805 7.537497043609619 6.605357646942139 7.537497043609619 7.741071701049805 C 7.537497043609619 8.882142066955566 6.616068363189697 9.803571701049805 5.474997997283936 9.803571701049805 Z M 20.58749008178711 22.8214282989502 L 17.03034973144531 22.8214282989502 L 17.03034973144531 17.25 C 17.03034973144531 15.92142868041992 17.00356483459473 14.21249866485596 15.18213653564453 14.21249866485596 C 13.3285665512085 14.21249866485596 13.04463672637939 15.65892791748047 13.04463672637939 17.1535701751709 L 13.04463672637939 22.8214282989502 L 9.487495422363281 22.8214282989502 L 9.487495422363281 11.36785793304443 L 12.89999389648438 11.36785793304443 L 12.89999389648438 12.93214321136475 L 12.94820880889893 12.93214321136475 C 13.42499446868896 12.03214454650879 14.58749294281006 11.08393001556396 16.31785011291504 11.08393001556396 C 19.91784858703613 11.08393001556396 20.58749008178711 13.45714282989502 20.58749008178711 16.5428581237793 L 20.58749008178711 22.8214282989502 Z">
    </path>
</svg>