<svg className="Icon_awesome-twitter" viewBox="0 3.381 29.55 24">
    <path id="Icon_awesome-twitter" d="M 26.51248931884766 9.361991882324219 C 26.53124618530273 9.624479293823242 26.53124618530273 9.887025833129883 26.53124618530273 10.14951229095459 C 26.53124618530273 18.15572547912598 20.43753433227539 27.38076400756836 9.300004005432129 27.38076400756836 C 5.868738174438477 27.38076400756836 2.681259870529175 26.38697052001953 -9.5367431640625e-07 24.66204261779785 C 0.4875167310237885 24.71825790405273 0.9562193155288696 24.73701477050781 1.462494373321533 24.73701477050781 C 4.293698310852051 24.73701477050781 6.899986743927002 23.78079414367676 8.981244087219238 22.14953994750977 C 6.318740844726562 22.09326934814453 4.087483406066895 20.34952735900879 3.318720579147339 17.94950866699219 C 3.693751811981201 18.00572395324707 4.068726062774658 18.04323768615723 4.462514400482178 18.04323768615723 C 5.006246566772461 18.04323768615723 5.550036430358887 17.96820831298828 6.056253433227539 17.83702278137207 C 3.281263589859009 17.27447700500488 1.199949502944946 14.83699989318848 1.199949502944946 11.89325141906738 L 1.199949502944946 11.81828022003174 C 2.006168603897095 12.26828289031982 2.943747043609619 12.54952812194824 3.937424421310425 12.58698463439941 C 2.306170701980591 11.49946212768555 1.237464427947998 9.643235206604004 1.237464427947998 7.543220520019531 C 1.237464427947998 6.418241500854492 1.537408590316772 5.386991500854492 2.062440872192383 4.486984729766846 C 5.043703556060791 8.161982536315918 9.52497673034668 10.56194114685059 14.54992294311523 10.82448577880859 C 14.4561939239502 10.37448310852051 14.39992141723633 9.905780792236328 14.39992141723633 9.437019348144531 C 14.39992141723633 6.099481582641602 17.09993934631348 3.380763053894043 20.45617485046387 3.380763053894043 C 22.19991493225098 3.380763053894043 23.7748966217041 4.112010955810547 24.88117599487305 5.293262481689453 C 26.24988555908203 5.03077507019043 27.56237983703613 4.524499893188477 28.72493171691895 3.830766439437866 C 28.27486991882324 5.237048149108887 27.31864929199219 6.418298721313477 26.06242752075195 7.168246269226074 C 27.28119468688965 7.037060737609863 28.46244239807129 6.699485778808594 29.54990768432617 6.230783462524414 C 28.72504615783691 7.430733680725098 27.6937370300293 8.499441146850586 26.51248931884766 9.361989974975586 Z">
    </path>
</svg>