<svg className="Icon_awesome-dribbble" viewBox="0.563 0.563 24 24">
    <path id="Icon_awesome-dribbble" d="M 12.56249523162842 0.5625 C 5.945658683776855 0.5625 0.5625 5.945661544799805 0.5625 12.5625 C 0.5625 19.17934036254883 5.945659637451172 24.5625 12.56249523162842 24.5625 C 19.17933082580566 24.5625 24.56249046325684 19.17934036254883 24.56249046325684 12.5625 C 24.56249046325684 5.945662021636963 19.17933082580566 0.5625 12.56249523162842 0.5625 Z M 20.49652290344238 6.096338748931885 C 21.92408752441406 7.840500831604004 22.78857040405273 10.0620002746582 22.81112098693848 12.48125743865967 C 22.47318458557129 12.4097900390625 19.08444404602051 11.72245216369629 15.67392921447754 12.15135478973389 C 15.39560699462891 11.47195243835449 15.13291358947754 10.87427425384521 14.77310752868652 10.13777446746826 C 18.56283187866211 8.590499877929688 20.28042793273926 6.388645172119141 20.49652290344238 6.096338748931885 Z M 19.35705757141113 4.911048889160156 C 19.17270278930664 5.173645496368408 17.62978363037109 7.2474684715271 13.98507595062256 8.613580703735352 C 12.30546379089355 5.527645111083984 10.44386672973633 2.99254846572876 10.16056156158447 2.613193273544312 C 13.41101169586182 1.829661130905151 16.83633232116699 2.674644947052002 19.35705757141113 4.911048412322998 Z M 8.204803466796875 3.302177667617798 C 8.475045204162598 3.672774076461792 10.30664157867432 6.211016654968262 12.00497913360596 9.230033874511719 C 7.21044921875 10.5032434463501 2.987563371658325 10.48490428924561 2.529144287109375 10.47885608673096 C 3.193789005279541 7.298226356506348 5.337240219116211 4.654742240905762 8.204803466796875 3.302177667617798 Z M 2.312660455703735 12.5781307220459 C 2.312660455703735 12.47332286834717 2.314741134643555 12.36900043487549 2.317886114120483 12.26491928100586 C 2.766337633132935 12.27411270141602 7.733367919921875 12.33812808990479 12.85204315185547 10.80624294281006 C 13.14546203613281 11.38050079345703 13.42576789855957 11.96341991424561 13.68304252624512 12.54570960998535 C 9.976640701293945 13.58966255187988 6.609142303466797 16.58733940124512 4.947674751281738 19.43148422241211 C 3.310595512390137 17.61435508728027 2.312660455703735 15.21072673797607 2.312660455703735 12.5781307220459 Z M 6.271061897277832 20.66424179077148 C 7.341723442077637 18.47554969787598 10.24741554260254 15.6502742767334 14.37971973419189 14.24056434631348 C 15.81875038146973 17.98006439208984 16.41386413574219 21.11409759521484 16.56628227233887 22.01337051391602 C 13.27054214477539 23.41722679138184 9.3074951171875 23.03206443786621 6.271061420440674 20.66424179077148 Z M 18.28944396972656 21.07500076293945 C 18.18439483642578 20.45148277282715 17.63883209228516 17.45095062255859 16.29821968078613 13.76695156097412 C 19.51015281677246 13.2527904510498 22.33208847045898 14.0944356918335 22.68274879455566 14.20509719848633 C 22.22587776184082 17.05708122253418 20.58889579772949 19.5201301574707 18.28944396972656 21.07500076293945 Z">
    </path>
</svg>