<svg className="Icon_awesome-github" viewBox="0 0.563 24.615 24">
    <path id="Icon_awesome-github" d="M 8.233119964599609 19.88726615905762 C 8.233119964599609 19.98652076721191 8.118978500366211 20.06592178344727 7.975059509277344 20.06592178344727 C 7.811290740966797 20.080810546875 7.697148323059082 20.00140762329102 7.697148323059082 19.88726615905762 C 7.697148323059082 19.78801155090332 7.81128978729248 19.70860862731934 7.955208778381348 19.70860862731934 C 8.104089736938477 19.69372177124023 8.233119964599609 19.77312469482422 8.233119964599609 19.88726615905762 Z M 6.689720153808594 19.66394424438477 C 6.654981136322021 19.76319885253906 6.75423526763916 19.87734031677246 6.903116226196289 19.90711784362793 C 7.032146453857422 19.95674324035645 7.181027412414551 19.90711784362793 7.210803985595703 19.80786323547363 C 7.240580081939697 19.70860862731934 7.146288871765137 19.59446716308594 6.997407913208008 19.54980278015137 C 6.868377685546875 19.51506233215332 6.724459171295166 19.56468963623047 6.689720153808594 19.66394424438477 Z M 8.883234024047852 19.5795783996582 C 8.739315986633301 19.61431694030762 8.64006233215332 19.70860862731934 8.654950141906738 19.82275009155273 C 8.669837951660156 19.92200469970703 8.798868179321289 19.98652076721191 8.947749137878418 19.95178031921387 C 9.091667175292969 19.91704177856445 9.190920829772949 19.82275009155273 9.176033020019531 19.72349739074707 C 9.161145210266113 19.62920570373535 9.027152061462402 19.56468963623047 8.883234024047852 19.5795783996582 Z M 12.14869117736816 0.5625 C 5.265425682067871 0.5625 0 5.788226127624512 0 12.67149448394775 C 0 18.17513275146484 3.463965177536011 22.88473892211914 8.411777496337891 24.54227828979492 C 9.047002792358398 24.65642166137695 9.27032470703125 24.26436805725098 9.27032470703125 23.94179344177246 C 9.27032470703125 23.63410568237305 9.255436897277832 21.93686103820801 9.255436897277832 20.89469337463379 C 9.255436897277832 20.89469337463379 5.781546115875244 21.63909912109375 5.052029132843018 19.41580772399902 C 5.052029132843018 19.41580772399902 4.486281394958496 17.97166061401367 3.672398567199707 17.59945869445801 C 3.672398567199707 17.59945869445801 2.535939931869507 16.82031440734863 3.751801729202271 16.83520317077637 C 3.751801729202271 16.83520317077637 4.987514019012451 16.93445587158203 5.667404651641846 18.11557960510254 C 6.754235744476318 20.03118133544922 8.575547218322754 19.48032188415527 9.285213470458984 19.15278434753418 C 9.399354934692383 18.35875129699707 9.721930503845215 17.80789184570312 10.07924556732178 17.4803524017334 C 7.305095672607422 17.17266654968262 4.506132125854492 16.77068710327148 4.506132125854492 11.99656677246094 C 4.506132125854492 10.63182258605957 4.883297443389893 9.94697093963623 5.677329540252686 9.073534965515137 C 5.548298835754395 8.750959396362305 5.126469612121582 7.420954704284668 5.806359767913818 5.703859806060791 C 6.843564033508301 5.381283760070801 9.230623245239258 7.043789863586426 9.230623245239258 7.043789863586426 C 10.22316360473633 6.765878677368164 11.2901439666748 6.621960163116455 12.34719848632812 6.621960163116455 C 13.40425395965576 6.621960163116455 14.47123432159424 6.765878677368164 15.46377468109131 7.043789863586426 C 15.46377468109131 7.043789863586426 17.85083389282227 5.376320838928223 18.88803863525391 5.703859806060791 C 19.56792831420898 7.425918102264404 19.14609909057617 8.750959396362305 19.01706695556641 9.073534965515137 C 19.81110000610352 9.951933860778809 20.29744338989258 10.63678550720215 20.29744338989258 11.99656677246094 C 20.29744338989258 16.78557586669922 17.37441444396973 17.16770362854004 14.60026454925537 17.4803524017334 C 15.05683326721191 17.87240791320801 15.443922996521 18.61681365966797 15.443922996521 19.78304862976074 C 15.443922996521 21.45548057556152 15.42903518676758 23.52492523193359 15.42903518676758 23.9318675994873 C 15.42903518676758 24.25444412231445 15.65731906890869 24.64649772644043 16.28758239746094 24.5323543548584 C 21.25028419494629 22.88473892211914 24.6149959564209 18.17513275146484 24.6149959564209 12.67149448394775 C 24.6149959564209 5.788226127624512 19.03195762634277 0.5625 12.14869117736816 0.5625 Z M 4.823744773864746 17.67886352539062 C 4.75922966003418 17.72848892211914 4.774117946624756 17.84263229370117 4.858483791351318 17.93692398071289 C 4.937887191772461 18.01632690429688 5.052029132843018 18.05106544494629 5.116544246673584 17.98655128479004 C 5.18105936050415 17.93692398071289 5.166171073913574 17.82278060913086 5.081805229187012 17.72848892211914 C 5.002401828765869 17.64908790588379 4.888260364532471 17.61434745788574 4.823744773864746 17.67886352539062 Z M 4.287773132324219 17.27688407897949 C 4.253034591674805 17.34140014648438 4.302661418914795 17.42080307006836 4.401915550231934 17.47043037414551 C 4.481318950653076 17.52005767822266 4.580572605133057 17.50516891479492 4.615311622619629 17.43569183349609 C 4.650050640106201 17.37117576599121 4.600423336029053 17.29177284240723 4.501169204711914 17.24214553833008 C 4.401915550231934 17.21236991882324 4.322512149810791 17.22725677490234 4.287773132324219 17.27688407897949 Z M 5.895688056945801 19.04360580444336 C 5.816284656524658 19.10812187194824 5.846061229705811 19.25700187683105 5.960203170776367 19.35129356384277 C 6.074344635009766 19.4654369354248 6.218263626098633 19.48032379150391 6.282778263092041 19.40092086791992 C 6.347293376922607 19.33640670776367 6.317517757415771 19.18752479553223 6.218263626098633 19.09323310852051 C 6.109084129333496 18.97909164428711 5.960203170776367 18.96420478820801 5.895688056945801 19.04360580444336 Z M 5.329940319061279 18.31408882141113 C 5.250536918640137 18.36371421813965 5.250536918640137 18.49274444580078 5.329940319061279 18.60688972473145 C 5.409343719482422 18.72103118896484 5.543336391448975 18.77065849304199 5.607851505279541 18.72103118896484 C 5.687254905700684 18.65651702880859 5.687254905700684 18.52748489379883 5.607851505279541 18.4133415222168 C 5.538373947143555 18.2992000579834 5.409343719482422 18.24957275390625 5.329940319061279 18.31408882141113 Z">
    </path>
</svg>