<svg class="Unione_2_" viewBox="-3980 -1211 750.001 45">
    <linearGradient id="Unione_2_" spreadMethod="pad" x1="0.027" x2="0.962" y1="0.5" y2="0.5">
        <stop offset="0" stopColor="#285ef3" stopOpacity="1"></stop>
        <stop offset="1" stopColor="#97f9f9" stopOpacity="1"></stop>
    </linearGradient>
    <path id="Unione_2_" d="M -3471.298828125 -1165.999633789062 C -3472.58935546875 -1165.999633789062 -3473.26953125 -1166.17041015625 -3473.3203125 -1166.508056640625 C -3473.436279296875 -1167.270141601562 -3470.35791015625 -1168.9033203125 -3464.1708984375 -1171.363525390625 C -3459.2216796875 -1173.331176757812 -3452.28369140625 -1175.828369140625 -3443.548828125 -1178.786865234375 C -3428.65283203125 -1183.832153320312 -3413.54833984375 -1188.513671875 -3413.3974609375 -1188.560668945312 C -3413.406494140625 -1188.561645507812 -3413.469482421875 -1188.58056640625 -3413.582275390625 -1188.615600585938 C -3417.33203125 -1189.778198242188 -3430.57470703125 -1193.910522460938 -3443.546630859375 -1198.280395507812 C -3452.28076171875 -1201.223022460938 -3459.2197265625 -1203.707153320312 -3464.1689453125 -1205.663940429688 C -3470.35595703125 -1208.111083984375 -3473.435302734375 -1209.736206054688 -3473.3203125 -1210.494384765625 C -3473.2705078125 -1210.829956054688 -3472.59033203125 -1210.999755859375 -3471.298828125 -1210.999755859375 L -3255.779296875 -1210.999755859375 C -3248.93017578125 -1210.999755859375 -3242.359619140625 -1208.313842773438 -3237.278564453125 -1203.435546875 C -3235.043212890625 -1201.289916992188 -3233.191162109375 -1198.780883789062 -3231.9228515625 -1196.178833007812 C -3230.664306640625 -1193.595825195312 -3229.9990234375 -1190.9619140625 -3229.9990234375 -1188.560668945312 C -3229.9990234375 -1186.157470703125 -3230.664306640625 -1183.516479492188 -3231.9228515625 -1180.922485351562 C -3233.1923828125 -1178.307495117188 -3235.044189453125 -1175.784423828125 -3237.278564453125 -1173.623901367188 C -3242.36572265625 -1168.70751953125 -3248.93505859375 -1165.999633789062 -3255.779296875 -1165.999633789062 L -3471.298828125 -1165.999633789062 Z M -3346.460693359375 -1191.032836914062 C -3347.36669921875 -1190.50341796875 -3348.097900390625 -1189.736328125 -3348.63427734375 -1188.75341796875 C -3349.170654296875 -1187.772583007812 -3349.442138671875 -1186.6318359375 -3349.442138671875 -1185.3623046875 C -3349.442138671875 -1184.1357421875 -3349.234375 -1183.009033203125 -3348.823974609375 -1182.01318359375 C -3348.412353515625 -1181.016357421875 -3347.776123046875 -1180.210327148438 -3346.93310546875 -1179.618896484375 C -3346.091064453125 -1179.026611328125 -3345.041259765625 -1178.726928710938 -3343.814697265625 -1178.726928710938 C -3342.7548828125 -1178.726928710938 -3341.773193359375 -1179.019653320312 -3340.89599609375 -1179.598022460938 C -3340.01806640625 -1180.17626953125 -3339.31494140625 -1180.989379882812 -3338.806396484375 -1182.01318359375 C -3338.298095703125 -1183.036987304688 -3338.039306640625 -1184.19970703125 -3338.039306640625 -1185.46826171875 C -3338.039306640625 -1187.41796875 -3338.48486328125 -1188.983154296875 -3339.36279296875 -1190.118896484375 C -3340.240966796875 -1191.254516601562 -3341.625244140625 -1191.830932617188 -3343.47900390625 -1191.830932617188 C -3344.552001953125 -1191.830932617188 -3345.5546875 -1191.562133789062 -3346.460693359375 -1191.032836914062 Z M -3316.9248046875 -1189.49951171875 C -3316.499267578125 -1188.984130859375 -3316.283447265625 -1188.36181640625 -3316.283447265625 -1187.651733398438 C -3316.283447265625 -1186.480102539062 -3316.937744140625 -1185.191528320312 -3318.226318359375 -1183.819091796875 C -3319.515869140625 -1182.446655273438 -3321.115966796875 -1181.164184570312 -3322.982666015625 -1180.007446289062 L -3322.604248046875 -1178.999633789062 L -3313.00830078125 -1178.999633789062 L -3312.31494140625 -1182.003173828125 L -3313.427734375 -1182.3388671875 L -3314.3935546875 -1180.994384765625 L -3320.064208984375 -1180.447998046875 C -3318.116455078125 -1181.658569335938 -3316.533203125 -1182.947143554688 -3315.359619140625 -1184.280639648438 C -3314.18896484375 -1185.613037109375 -3313.595458984375 -1186.986450195312 -3313.595458984375 -1188.365844726562 C -3313.595458984375 -1189.020141601562 -3313.7724609375 -1189.62841796875 -3314.120849609375 -1190.170776367188 C -3314.468505859375 -1190.714111328125 -3314.97705078125 -1191.152709960938 -3315.63330078125 -1191.473266601562 C -3316.28857421875 -1191.7939453125 -3317.064697265625 -1191.956787109375 -3317.942626953125 -1191.956787109375 C -3318.91845703125 -1191.956787109375 -3319.9072265625 -1191.734008789062 -3320.883056640625 -1191.295532226562 C -3321.859130859375 -1190.85595703125 -3322.565185546875 -1190.343627929688 -3322.982666015625 -1189.772216796875 L -3322.3525390625 -1188.785400390625 C -3321.864990234375 -1189.203857421875 -3321.306640625 -1189.560546875 -3320.693359375 -1189.84619140625 C -3320.0810546875 -1190.1318359375 -3319.44482421875 -1190.276611328125 -3318.803466796875 -1190.276611328125 C -3317.9814453125 -1190.276611328125 -3317.349365234375 -1190.015014648438 -3316.9248046875 -1189.49951171875 Z M -3329.588134765625 -1189.49951171875 C -3329.16259765625 -1188.984130859375 -3328.94677734375 -1188.36181640625 -3328.94677734375 -1187.651733398438 C -3328.94677734375 -1186.480102539062 -3329.60009765625 -1185.191528320312 -3330.8896484375 -1183.819091796875 C -3332.17822265625 -1182.446655273438 -3333.7783203125 -1181.164184570312 -3335.645263671875 -1180.007446289062 L -3335.267578125 -1178.999633789062 L -3325.670654296875 -1178.999633789062 L -3324.9775390625 -1182.003173828125 L -3326.091064453125 -1182.3388671875 L -3327.05712890625 -1180.994384765625 L -3332.7265625 -1180.447998046875 C -3330.77978515625 -1181.658569335938 -3329.196533203125 -1182.947143554688 -3328.02294921875 -1184.280639648438 C -3326.852294921875 -1185.612060546875 -3326.259033203125 -1186.986450195312 -3326.259033203125 -1188.365844726562 C -3326.259033203125 -1189.020141601562 -3326.435791015625 -1189.62841796875 -3326.784423828125 -1190.170776367188 C -3327.130859375 -1190.714111328125 -3327.640380859375 -1191.152709960938 -3328.296630859375 -1191.473266601562 C -3328.950927734375 -1191.7939453125 -3329.72802734375 -1191.956787109375 -3330.60595703125 -1191.956787109375 C -3331.580810546875 -1191.956787109375 -3332.57080078125 -1191.734008789062 -3333.545654296875 -1191.295532226562 C -3334.521484375 -1190.85595703125 -3335.228515625 -1190.343627929688 -3335.645263671875 -1189.772216796875 L -3335.015869140625 -1188.785400390625 C -3334.5283203125 -1189.203857421875 -3333.968994140625 -1189.560546875 -3333.356689453125 -1189.84619140625 C -3332.743408203125 -1190.1318359375 -3332.108154296875 -1190.276611328125 -3331.467041015625 -1190.276611328125 C -3330.64501953125 -1190.276611328125 -3330.0126953125 -1190.015014648438 -3329.588134765625 -1189.49951171875 Z M -3356.131591796875 -1189.49951171875 C -3355.7060546875 -1188.984130859375 -3355.490234375 -1188.36181640625 -3355.490234375 -1187.651733398438 C -3355.490234375 -1186.481079101562 -3356.14453125 -1185.191528320312 -3357.43408203125 -1183.819091796875 C -3358.72265625 -1182.446655273438 -3360.32275390625 -1181.164184570312 -3362.1904296875 -1180.007446289062 L -3361.81201171875 -1178.999633789062 L -3352.215087890625 -1178.999633789062 L -3351.521728515625 -1182.003173828125 L -3352.634521484375 -1182.3388671875 L -3353.600341796875 -1180.994384765625 L -3359.27099609375 -1180.447998046875 C -3357.322265625 -1181.658569335938 -3355.739990234375 -1182.947143554688 -3354.5673828125 -1184.280639648438 C -3353.396728515625 -1185.612060546875 -3352.803466796875 -1186.986450195312 -3352.803466796875 -1188.365844726562 C -3352.803466796875 -1189.021118164062 -3352.980224609375 -1189.62841796875 -3353.327880859375 -1190.170776367188 C -3353.67626953125 -1190.714111328125 -3354.184814453125 -1191.152709960938 -3354.840087890625 -1191.473266601562 C -3355.494384765625 -1191.7939453125 -3356.2724609375 -1191.956787109375 -3357.150390625 -1191.956787109375 C -3358.125244140625 -1191.956787109375 -3359.114013671875 -1191.734008789062 -3360.090087890625 -1191.295532226562 C -3361.06494140625 -1190.85595703125 -3361.77197265625 -1190.343627929688 -3362.1904296875 -1189.772216796875 L -3361.560302734375 -1188.785400390625 C -3361.06982421875 -1189.204956054688 -3360.511474609375 -1189.5615234375 -3359.900146484375 -1189.84619140625 C -3359.288818359375 -1190.1318359375 -3358.652587890625 -1190.276611328125 -3358.01025390625 -1190.276611328125 C -3357.188232421875 -1190.276611328125 -3356.55615234375 -1190.015014648438 -3356.131591796875 -1189.49951171875 Z M -3712.10400390625 -1165.999633789062 C -3713.39453125 -1165.999633789062 -3714.074951171875 -1166.17041015625 -3714.125732421875 -1166.508056640625 C -3714.24169921875 -1167.270141601562 -3711.1630859375 -1168.9033203125 -3704.976318359375 -1171.363525390625 C -3700.027099609375 -1173.331176757812 -3693.088134765625 -1175.829345703125 -3684.35400390625 -1178.786865234375 C -3669.51611328125 -1183.813110351562 -3654.354736328125 -1188.513671875 -3654.202880859375 -1188.560668945312 C -3654.2119140625 -1188.561645507812 -3654.273681640625 -1188.58056640625 -3654.3857421875 -1188.614624023438 C -3658.13427734375 -1189.777221679688 -3671.3740234375 -1193.908447265625 -3684.35205078125 -1198.280395507812 C -3693.0859375 -1201.222045898438 -3700.02392578125 -1203.707153320312 -3704.974365234375 -1205.663940429688 C -3711.1611328125 -1208.111083984375 -3714.24072265625 -1209.736206054688 -3714.125732421875 -1210.494384765625 C -3714.075927734375 -1210.829956054688 -3713.3955078125 -1210.999755859375 -3712.10400390625 -1210.999755859375 L -3496.58349609375 -1210.999755859375 C -3493.171630859375 -1210.999755859375 -3487.526123046875 -1209.817138671875 -3479.803955078125 -1207.48388671875 C -3473.6259765625 -1205.617919921875 -3466.11474609375 -1203.015991210938 -3457.4755859375 -1199.749755859375 C -3442.71875 -1194.171142578125 -3429.7177734375 -1188.5556640625 -3429.587890625 -1188.499755859375 C -3429.59375 -1188.495727539062 -3429.620849609375 -1188.483764648438 -3429.670654296875 -1188.462768554688 C -3431.959228515625 -1187.479858398438 -3444.05712890625 -1182.322875976562 -3457.4755859375 -1177.249633789062 C -3466.11474609375 -1173.984497070312 -3473.6259765625 -1171.381469726562 -3479.803955078125 -1169.515625 C -3487.526123046875 -1167.182250976562 -3493.171630859375 -1165.999633789062 -3496.58349609375 -1165.999633789062 L -3712.10400390625 -1165.999633789062 Z M -3566.51904296875 -1176.710327148438 L -3566.5390625 -1175.53466796875 C -3566.26025390625 -1175.450805664062 -3565.878662109375 -1175.408813476562 -3565.4052734375 -1175.408813476562 C -3564.02685546875 -1175.408813476562 -3562.726318359375 -1175.701416015625 -3561.541748046875 -1176.27978515625 C -3560.35595703125 -1176.859130859375 -3559.402099609375 -1177.639282226562 -3558.70703125 -1178.60107421875 C -3558.009765625 -1179.56201171875 -3557.65625 -1180.600830078125 -3557.65625 -1181.687622070312 C -3557.65625 -1182.635498046875 -3557.864990234375 -1183.461547851562 -3558.275390625 -1184.144775390625 C -3558.68701171875 -1184.826904296875 -3559.248291015625 -1185.349365234375 -3559.945556640625 -1185.697998046875 C -3560.642822265625 -1186.046508789062 -3561.412841796875 -1186.223388671875 -3562.23486328125 -1186.223388671875 C -3563.055908203125 -1186.223388671875 -3563.8759765625 -1186.054565429688 -3564.670166015625 -1185.719970703125 L -3563.955810546875 -1189.6044921875 L -3558.958740234375 -1189.6044921875 L -3558.328369140625 -1191.934814453125 L -3559.56689453125 -1191.934814453125 L -3559.861572265625 -1191.682983398438 L -3565.762939453125 -1191.682983398438 L -3566.4970703125 -1184.712036132812 L -3565.8037109375 -1184.37548828125 C -3565.0107421875 -1184.626220703125 -3564.24658203125 -1184.753051757812 -3563.535400390625 -1184.753051757812 C -3562.560546875 -1184.753051757812 -3561.779541015625 -1184.477294921875 -3561.216064453125 -1183.933959960938 C -3560.651611328125 -1183.3916015625 -3560.364990234375 -1182.529541015625 -3560.364990234375 -1181.372924804688 C -3560.364990234375 -1180.453002929688 -3560.626708984375 -1179.6298828125 -3561.14208984375 -1178.92578125 C -3561.65869140625 -1178.221557617188 -3562.34765625 -1177.667236328125 -3563.189697265625 -1177.277709960938 C -3564.03271484375 -1176.887084960938 -3564.940673828125 -1176.689331054688 -3565.888671875 -1176.689331054688 C -3566.16748046875 -1176.689331054688 -3566.379150390625 -1176.6962890625 -3566.51904296875 -1176.711303710938 Z M -3587.26611328125 -1191.032836914062 C -3588.172119140625 -1190.50341796875 -3588.903076171875 -1189.736328125 -3589.439453125 -1188.75341796875 C -3589.975830078125 -1187.772583007812 -3590.24755859375 -1186.6318359375 -3590.24755859375 -1185.3623046875 C -3590.24755859375 -1184.1357421875 -3590.039794921875 -1183.009033203125 -3589.62841796875 -1182.01318359375 C -3589.2177734375 -1181.016357421875 -3588.58154296875 -1180.210327148438 -3587.738525390625 -1179.618896484375 C -3586.896484375 -1179.026611328125 -3585.8466796875 -1178.726928710938 -3584.6201171875 -1178.726928710938 C -3583.560302734375 -1178.726928710938 -3582.578369140625 -1179.019653320312 -3581.701416015625 -1179.598022460938 C -3580.823486328125 -1180.17626953125 -3580.120361328125 -1180.989379882812 -3579.61181640625 -1182.01318359375 C -3579.103515625 -1183.036987304688 -3578.8447265625 -1184.19970703125 -3578.8447265625 -1185.46826171875 C -3578.8447265625 -1187.41796875 -3579.290283203125 -1188.983154296875 -3580.168212890625 -1190.118896484375 C -3581.046142578125 -1191.254516601562 -3582.4306640625 -1191.830932617188 -3584.284423828125 -1191.830932617188 C -3585.357177734375 -1191.830932617188 -3586.360107421875 -1191.562133789062 -3587.26611328125 -1191.032836914062 Z M -3573.574951171875 -1189.05908203125 L -3573.574951171875 -1189.05810546875 L -3573.574951171875 -1180.427978515625 L -3576.450439453125 -1180.112426757812 L -3576.450439453125 -1178.999633789062 L -3568.4287109375 -1178.999633789062 L -3568.4287109375 -1180.112426757812 L -3571.0546875 -1180.427978515625 L -3571.01171875 -1191.808959960938 L -3571.873779296875 -1191.977661132812 C -3572.153564453125 -1191.767944335938 -3572.874755859375 -1191.4033203125 -3574.015380859375 -1190.89599609375 C -3575.157958984375 -1190.387573242188 -3576.048095703125 -1190.037963867188 -3576.661376953125 -1189.856201171875 L -3576.3876953125 -1188.617553710938 L -3573.575927734375 -1189.05908203125 Z M -3596.93701171875 -1189.49951171875 C -3596.511474609375 -1188.984130859375 -3596.295654296875 -1188.36181640625 -3596.295654296875 -1187.651733398438 C -3596.295654296875 -1186.481079101562 -3596.949951171875 -1185.191528320312 -3598.239501953125 -1183.819091796875 C -3599.52783203125 -1182.446655273438 -3601.128173828125 -1181.164184570312 -3602.995849609375 -1180.007446289062 L -3602.617431640625 -1178.999633789062 L -3593.0205078125 -1178.999633789062 L -3592.3271484375 -1182.002197265625 L -3593.43994140625 -1182.3388671875 L -3594.40576171875 -1180.994384765625 L -3600.076171875 -1180.447998046875 C -3598.12744140625 -1181.658569335938 -3596.54541015625 -1182.947143554688 -3595.372802734375 -1184.280639648438 C -3594.2021484375 -1185.611083984375 -3593.608642578125 -1186.985473632812 -3593.608642578125 -1188.365844726562 C -3593.608642578125 -1189.021118164062 -3593.78564453125 -1189.62841796875 -3594.133056640625 -1190.170776367188 C -3594.481689453125 -1190.714111328125 -3594.990234375 -1191.152709960938 -3595.6455078125 -1191.473266601562 C -3596.299560546875 -1191.7939453125 -3597.07763671875 -1191.956787109375 -3597.955810546875 -1191.956787109375 C -3598.9306640625 -1191.956787109375 -3599.91943359375 -1191.734008789062 -3600.895263671875 -1191.295532226562 C -3601.8701171875 -1190.85595703125 -3602.577392578125 -1190.343627929688 -3602.995849609375 -1189.772216796875 L -3602.36572265625 -1188.785400390625 C -3601.876220703125 -1189.204956054688 -3601.31689453125 -1189.5615234375 -3600.70654296875 -1189.84619140625 C -3600.09423828125 -1190.1318359375 -3599.4580078125 -1190.276611328125 -3598.815673828125 -1190.276611328125 C -3597.99365234375 -1190.276611328125 -3597.361328125 -1190.015014648438 -3596.93701171875 -1189.49951171875 Z M -3952.909423828125 -1165.999633789062 C -3960.14501953125 -1165.999633789062 -3966.9482421875 -1168.339965820312 -3972.0654296875 -1172.590087890625 C -3974.553466796875 -1174.655639648438 -3976.50732421875 -1177.061889648438 -3977.87158203125 -1179.741821289062 C -3979.2841796875 -1182.515625 -3980.000244140625 -1185.462158203125 -3980.000244140625 -1188.499755859375 C -3980.000244140625 -1191.537231445312 -3979.2841796875 -1194.483764648438 -3977.87158203125 -1197.257568359375 C -3976.50732421875 -1199.9365234375 -3974.553466796875 -1202.3427734375 -3972.0654296875 -1204.409423828125 C -3966.9482421875 -1208.659423828125 -3960.14501953125 -1210.999755859375 -3952.909423828125 -1210.999755859375 L -3737.388916015625 -1210.999755859375 C -3733.975830078125 -1210.999755859375 -3728.330322265625 -1209.817138671875 -3720.609375 -1207.48388671875 C -3714.431396484375 -1205.617919921875 -3706.919189453125 -1203.015991210938 -3698.280029296875 -1199.749755859375 C -3683.56005859375 -1194.184204101562 -3670.52294921875 -1188.5556640625 -3670.393310546875 -1188.499755859375 C -3670.398193359375 -1188.495727539062 -3670.42626953125 -1188.483764648438 -3670.47509765625 -1188.462768554688 C -3672.764404296875 -1187.479858398438 -3684.863525390625 -1182.32177734375 -3698.280029296875 -1177.249633789062 C -3706.919189453125 -1173.9833984375 -3714.431396484375 -1171.381469726562 -3720.609375 -1169.515625 C -3728.330322265625 -1167.182250976562 -3733.975830078125 -1165.999633789062 -3737.388916015625 -1165.999633789062 L -3952.909423828125 -1165.999633789062 Z M -3839.9228515625 -1189.27880859375 C -3839.490234375 -1188.380859375 -3839.271484375 -1187.161254882812 -3839.271484375 -1185.656005859375 L -3839.29248046875 -1184.94287109375 C -3839.321533203125 -1183.7841796875 -3839.614013671875 -1182.568603515625 -3840.16455078125 -1181.329956054688 C -3840.71484375 -1180.090454101562 -3841.4990234375 -1178.970703125 -3842.495849609375 -1178.001831054688 C -3843.49072265625 -1177.033935546875 -3844.639404296875 -1176.3447265625 -3845.907958984375 -1175.954223632812 L -3845.382568359375 -1174.820434570312 C -3843.920166015625 -1175.085205078125 -3842.495849609375 -1175.763427734375 -3841.1513671875 -1176.836181640625 C -3839.806884765625 -1177.908935546875 -3838.7041015625 -1179.266357421875 -3837.875 -1180.868530273438 C -3837.046142578125 -1182.4716796875 -3836.62548828125 -1184.167724609375 -3836.62548828125 -1185.90869140625 C -3836.62548828125 -1186.996459960938 -3836.83740234375 -1188.003295898438 -3837.255859375 -1188.901245117188 C -3837.67431640625 -1189.800170898438 -3838.28271484375 -1190.5244140625 -3839.061767578125 -1191.0537109375 C -3839.841796875 -1191.583129882812 -3840.78173828125 -1191.850830078125 -3841.8544921875 -1191.850830078125 C -3842.943359375 -1191.850830078125 -3843.9140625 -1191.586181640625 -3844.7421875 -1191.063720703125 C -3845.572265625 -1190.541381835938 -3846.221435546875 -1189.838134765625 -3846.674072265625 -1188.975219726562 C -3847.12744140625 -1188.111206054688 -3847.356201171875 -1187.171264648438 -3847.356201171875 -1186.181396484375 C -3847.356201171875 -1185.387329101562 -3847.201416015625 -1184.642211914062 -3846.894775390625 -1183.965942382812 C -3846.589111328125 -1183.291748046875 -3846.126708984375 -1182.740356445312 -3845.519287109375 -1182.327880859375 C -3844.9130859375 -1181.916259765625 -3844.181884765625 -1181.70849609375 -3843.345703125 -1181.70849609375 C -3842.692626953125 -1181.70849609375 -3842.0673828125 -1181.824462890625 -3841.488037109375 -1182.05517578125 C -3840.90966796875 -1182.284912109375 -3840.482177734375 -1182.591552734375 -3840.21630859375 -1182.968139648438 L -3840.699951171875 -1183.85009765625 C -3840.881591796875 -1183.711181640625 -3841.13623046875 -1183.591430664062 -3841.4560546875 -1183.493530273438 C -3841.777587890625 -1183.395629882812 -3842.1171875 -1183.345703125 -3842.4638671875 -1183.345703125 C -3843.159912109375 -1183.345703125 -3843.746337890625 -1183.682250976562 -3844.206787109375 -1184.344482421875 C -3844.666259765625 -1185.005737304688 -3844.89892578125 -1185.877685546875 -3844.89892578125 -1186.9375 C -3844.89892578125 -1187.927368164062 -3844.666259765625 -1188.800415039062 -3844.206787109375 -1189.530517578125 C -3843.747314453125 -1190.2626953125 -3843.076171875 -1190.63330078125 -3842.212158203125 -1190.63330078125 C -3841.125244140625 -1190.63330078125 -3840.355224609375 -1190.177734375 -3839.9228515625 -1189.27880859375 Z M -3853.089599609375 -1189.27880859375 C -3852.657958984375 -1188.380859375 -3852.438232421875 -1187.161254882812 -3852.438232421875 -1185.656005859375 L -3852.459228515625 -1184.94287109375 C -3852.48828125 -1183.7841796875 -3852.781982421875 -1182.568603515625 -3853.331298828125 -1181.329956054688 C -3853.881591796875 -1180.091430664062 -3854.665771484375 -1178.970703125 -3855.66259765625 -1178.001831054688 C -3856.658447265625 -1177.033935546875 -3857.80615234375 -1176.3447265625 -3859.07470703125 -1175.954223632812 L -3858.55029296875 -1174.820434570312 C -3857.0869140625 -1175.085205078125 -3855.66259765625 -1175.763427734375 -3854.318115234375 -1176.836181640625 C -3852.9736328125 -1177.908935546875 -3851.870849609375 -1179.266357421875 -3851.0419921875 -1180.868530273438 C -3850.212890625 -1182.4716796875 -3849.79248046875 -1184.167724609375 -3849.79248046875 -1185.90869140625 C -3849.79248046875 -1186.996459960938 -3850.005126953125 -1188.003295898438 -3850.422607421875 -1188.901245117188 C -3850.841064453125 -1189.800170898438 -3851.449462890625 -1190.5244140625 -3852.228515625 -1191.0537109375 C -3853.008544921875 -1191.583129882812 -3853.948486328125 -1191.850830078125 -3855.021240234375 -1191.850830078125 C -3856.110107421875 -1191.850830078125 -3857.0810546875 -1191.586181640625 -3857.908935546875 -1191.063720703125 C -3858.739013671875 -1190.541381835938 -3859.389404296875 -1189.838134765625 -3859.841796875 -1188.975219726562 C -3860.294189453125 -1188.111206054688 -3860.52294921875 -1187.171264648438 -3860.52294921875 -1186.181396484375 C -3860.52294921875 -1185.387329101562 -3860.3681640625 -1184.642211914062 -3860.0615234375 -1183.965942382812 C -3859.755859375 -1183.291748046875 -3859.29345703125 -1182.740356445312 -3858.68603515625 -1182.327880859375 C -3858.079833984375 -1181.916259765625 -3857.3486328125 -1181.70849609375 -3856.5126953125 -1181.70849609375 C -3855.859375 -1181.70849609375 -3855.234130859375 -1181.824462890625 -3854.65478515625 -1182.05517578125 C -3854.076416015625 -1182.284912109375 -3853.64892578125 -1182.591552734375 -3853.38427734375 -1182.968139648438 L -3853.86669921875 -1183.85009765625 C -3854.04833984375 -1183.711181640625 -3854.30322265625 -1183.591430664062 -3854.622802734375 -1183.493530273438 C -3854.9443359375 -1183.395629882812 -3855.283935546875 -1183.345703125 -3855.630615234375 -1183.345703125 C -3856.327880859375 -1183.345703125 -3856.9130859375 -1183.682250976562 -3857.37353515625 -1184.344482421875 C -3857.8330078125 -1185.005737304688 -3858.06689453125 -1185.877685546875 -3858.06689453125 -1186.9375 C -3858.06689453125 -1187.927368164062 -3857.8330078125 -1188.800415039062 -3857.37353515625 -1189.530517578125 C -3856.9140625 -1190.2626953125 -3856.242919921875 -1190.63330078125 -3855.37890625 -1190.63330078125 C -3854.292236328125 -1190.63330078125 -3853.52197265625 -1190.177734375 -3853.089599609375 -1189.27880859375 Z M -3829.391845703125 -1192.964599609375 C -3830.7783203125 -1192.0166015625 -3831.916015625 -1190.81201171875 -3832.77197265625 -1189.383666992188 C -3833.62890625 -1187.956298828125 -3834.0634765625 -1186.39111328125 -3834.0634765625 -1184.732055664062 C -3834.0634765625 -1183.63134765625 -3833.8408203125 -1182.617553710938 -3833.40234375 -1181.718505859375 C -3832.962890625 -1180.820556640625 -3832.33447265625 -1180.096435546875 -3831.533447265625 -1179.566040039062 C -3830.732421875 -1179.03662109375 -3829.789306640625 -1178.768920898438 -3828.729736328125 -1178.768920898438 C -3827.641845703125 -1178.768920898438 -3826.669921875 -1179.033569335938 -3825.842041015625 -1179.556030273438 C -3825.012939453125 -1180.078369140625 -3824.36279296875 -1180.78564453125 -3823.91015625 -1181.655639648438 C -3823.457763671875 -1182.526611328125 -3823.22802734375 -1183.462524414062 -3823.22802734375 -1184.438354492188 C -3823.22802734375 -1185.2314453125 -3823.3828125 -1185.980590820312 -3823.689453125 -1186.664794921875 C -3823.99609375 -1187.347045898438 -3824.45556640625 -1187.9013671875 -3825.054931640625 -1188.31298828125 C -3825.653076171875 -1188.724487304688 -3826.388427734375 -1188.932250976562 -3827.23828125 -1188.932250976562 C -3827.86572265625 -1188.932250976562 -3828.501953125 -1188.801391601562 -3829.128173828125 -1188.543701171875 C -3829.75537109375 -1188.286987304688 -3830.171875 -1187.986328125 -3830.36767578125 -1187.651733398438 L -3829.88427734375 -1186.790649414062 C -3829.633544921875 -1186.943481445312 -3829.37890625 -1187.063354492188 -3829.128173828125 -1187.147216796875 C -3828.87646484375 -1187.231201171875 -3828.537841796875 -1187.274169921875 -3828.120361328125 -1187.274169921875 C -3827.41015625 -1187.274169921875 -3826.82373046875 -1186.941528320312 -3826.37744140625 -1186.286254882812 C -3825.931884765625 -1185.630981445312 -3825.7060546875 -1184.755004882812 -3825.7060546875 -1183.682250976562 C -3825.7060546875 -1182.694458007812 -3825.935791015625 -1181.825439453125 -3826.388427734375 -1181.099243164062 C -3826.841796875 -1180.375122070312 -3827.509033203125 -1180.007446289062 -3828.373046875 -1180.007446289062 C -3829.5576171875 -1180.007446289062 -3830.376708984375 -1180.533935546875 -3830.809326171875 -1181.57275390625 C -3831.24072265625 -1182.610473632812 -3831.4384765625 -1183.998901367188 -3831.396484375 -1185.698974609375 C -3831.383544921875 -1186.769653320312 -3831.075927734375 -1187.861450195312 -3830.483642578125 -1188.943237304688 C -3829.890380859375 -1190.02392578125 -3829.0673828125 -1190.994873046875 -3828.037353515625 -1191.830932617188 C -3827.004638671875 -1192.666870117188 -3825.81103515625 -1193.289184570312 -3824.487548828125 -1193.677734375 L -3825.054931640625 -1194.79150390625 C -3826.545166015625 -1194.527709960938 -3828.00439453125 -1193.912475585938 -3829.391845703125 -1192.964599609375 Z M -3867.412109375 -1189.05810546875 L -3867.412109375 -1189.05712890625 L -3867.412109375 -1180.427001953125 L -3870.288818359375 -1180.112426757812 L -3870.288818359375 -1178.998657226562 L -3862.26708984375 -1178.998657226562 L -3862.26708984375 -1180.112426757812 L -3864.891845703125 -1180.427001953125 L -3864.85009765625 -1191.809936523438 L -3865.7109375 -1191.976684570312 C -3865.98974609375 -1191.768920898438 -3866.7099609375 -1191.405395507812 -3867.8525390625 -1190.89599609375 C -3868.9951171875 -1190.387573242188 -3869.88525390625 -1190.037963867188 -3870.49951171875 -1189.857177734375 L -3870.225830078125 -1188.617553710938 L -3867.4130859375 -1189.05810546875 Z M -3343.68896484375 -1179.986572265625 C -3344.3291015625 -1180.00048828125 -3344.87744140625 -1180.283203125 -3345.31591796875 -1180.826538085938 C -3345.755615234375 -1181.370971679688 -3346.091064453125 -1182.0810546875 -3346.31396484375 -1182.937133789062 C -3346.53662109375 -1183.796142578125 -3346.6494140625 -1184.697143554688 -3346.6494140625 -1185.614013671875 C -3346.6494140625 -1187.203247070312 -3346.434814453125 -1188.439819335938 -3346.00927734375 -1189.288818359375 C -3345.584716796875 -1190.139770507812 -3344.8525390625 -1190.5703125 -3343.835693359375 -1190.5703125 C -3342.832763671875 -1190.5703125 -3342.07666015625 -1190.072875976562 -3341.58935546875 -1189.090087890625 C -3341.100830078125 -1188.108154296875 -3340.854248046875 -1186.82568359375 -3340.854248046875 -1185.278442382812 C -3340.854248046875 -1183.550415039062 -3341.06591796875 -1182.214965820312 -3341.4833984375 -1181.31005859375 C -3341.889892578125 -1180.431030273438 -3342.60009765625 -1179.985473632812 -3343.595947265625 -1179.985473632812 C -3343.626953125 -1179.985473632812 -3343.657958984375 -1179.985473632812 -3343.68896484375 -1179.986572265625 Z M -3584.494140625 -1179.986572265625 C -3585.135498046875 -1180.00048828125 -3585.682861328125 -1180.283203125 -3586.121337890625 -1180.826538085938 C -3586.560791015625 -1181.370971679688 -3586.8974609375 -1182.0810546875 -3587.119140625 -1182.937133789062 C -3587.342041015625 -1183.796142578125 -3587.454833984375 -1184.697143554688 -3587.454833984375 -1185.614013671875 C -3587.454833984375 -1187.203247070312 -3587.239990234375 -1188.439819335938 -3586.814453125 -1189.288818359375 C -3586.39013671875 -1190.139770507812 -3585.658935546875 -1190.5703125 -3584.64111328125 -1190.5703125 C -3583.63818359375 -1190.5703125 -3582.882080078125 -1190.072875976562 -3582.394775390625 -1189.090087890625 C -3581.9072265625 -1188.108154296875 -3581.659423828125 -1186.82568359375 -3581.659423828125 -1185.278442382812 C -3581.659423828125 -1183.550415039062 -3581.871337890625 -1182.214965820312 -3582.289794921875 -1181.31005859375 C -3582.6953125 -1180.431030273438 -3583.405517578125 -1179.985473632812 -3584.4013671875 -1179.985473632812 C -3584.432373046875 -1179.985473632812 -3584.46337890625 -1179.985473632812 -3584.494140625 -1179.986572265625 Z">
    </path>
</svg>